<svg width="33" height="33" viewBox="0 0 33 33" fill="none" xmlns="http://www.w3.org/2000/svg">
<g clip-path="url(#clip0_10_113)">
<path d="M16.5 32.0375L11.8938 27.5H5.50002V21.1062L0.962524 16.5L5.50002 11.8937V5.49999H11.8938L16.5 0.962494L21.1063 5.49999H27.5V11.8937L32.0375 16.5L27.5 21.1062V27.5H21.1063L16.5 32.0375ZM16.5 24.75C18.7917 24.75 20.7396 23.9479 22.3438 22.3437C23.9479 20.7396 24.75 18.7917 24.75 16.5C24.75 14.2083 23.9479 12.2604 22.3438 10.6562C20.7396 9.05208 18.7917 8.24999 16.5 8.24999C15.9042 8.24999 15.3084 8.30729 14.7125 8.42187C14.1167 8.53645 13.5552 8.71979 13.0282 8.97187C14.4948 9.65937 15.6695 10.6847 16.5523 12.0477C17.4341 13.4117 17.875 14.8958 17.875 16.5C17.875 18.1042 17.4341 19.5882 16.5523 20.9522C15.6695 22.3153 14.4948 23.3406 13.0282 24.0281C13.5552 24.2802 14.1167 24.4635 14.7125 24.5781C15.3084 24.6927 15.9042 24.75 16.5 24.75Z" fill="white"/>
</g>
<defs>
<clipPath id="clip0_10_113">
<rect width="33" height="33" fill="white"/>
</clipPath>
</defs>
</svg>
