<svg width="366" height="314" viewBox="0 0 366 314" fill="none" xmlns="http://www.w3.org/2000/svg">
<path d="M300.82 218.2C288.07 227.89 261.346 249.412 256.45 257.98" stroke="white" stroke-width="7" stroke-linecap="round"/>
<path d="M300.82 218.2C307.323 225.375 326.83 242.764 352.84 254.92" stroke="white" stroke-width="7" stroke-linecap="round"/>
<path d="M303.88 155.47C317.14 153.43 347.332 148.126 362.02 143.23" stroke="white" stroke-width="7" stroke-linecap="round"/>
<path d="M304 155C290.772 152.667 260.653 146.6 246 141" stroke="white" stroke-width="7" stroke-linecap="round"/>
<path d="M309 61.5C341.751 64.1751 347.653 83.7212 335.5 104C325.079 121.388 298.143 124.752 284 114C264.647 99.2869 268.061 58.1561 309 61.5Z" stroke="white" stroke-width="7"/>
<path d="M4 310C55.883 305.382 172.583 298.916 224.32 310" stroke="white" stroke-width="7" stroke-linecap="round"/>
<path d="M113.342 303.534C115.533 308.086 120.153 255.167 121.105 7.07092" stroke="white" stroke-width="7" stroke-linecap="round"/>
<path d="M123.34 6.70333C137.62 4.66333 194.332 1.80733 306.94 6.70333" stroke="white" stroke-width="7" stroke-linecap="round"/>
<path d="M307.179 7.06C306.708 17.26 306.614 41.944 310 59.08" stroke="white" stroke-width="7" stroke-linecap="round"/>
<path d="M305.41 121.81C300.82 147.82 306.94 196.474 300.82 219.73" stroke="white" stroke-width="7" stroke-linecap="round"/>
</svg>
