<svg  width="31" height="31" viewBox="0 0 31 31" fill="white" xmlns="http://www.w3.org/2000/svg">
<path d="M15.4354 23.25C15.8875 23.25 16.2698 23.0937 16.5824 22.7811C16.8942 22.4694 17.05 22.0875 17.05 21.6354C17.05 21.1833 16.8942 20.8014 16.5824 20.4897C16.2698 20.1771 15.8875 20.0208 15.4354 20.0208C14.9833 20.0208 14.601 20.1771 14.2884 20.4897C13.9767 20.8014 13.8208 21.1833 13.8208 21.6354C13.8208 22.0875 13.9767 22.4694 14.2884 22.7811C14.601 23.0937 14.9833 23.25 15.4354 23.25ZM15.6292 9.94584C16.232 9.94584 16.7163 10.1125 17.0823 10.4457C17.4483 10.7798 17.6313 11.216 17.6313 11.7542C17.6313 12.1202 17.5077 12.4913 17.2606 12.8676C17.0126 13.2448 16.6625 13.6379 16.2104 14.0469C15.5646 14.6066 15.091 15.1448 14.7896 15.6615C14.4882 16.1781 14.3375 16.6948 14.3375 17.2115C14.3375 17.5129 14.4507 17.7656 14.6772 17.9697C14.9028 18.1746 15.1663 18.2771 15.4677 18.2771C15.7691 18.2771 16.0382 18.1695 16.275 17.9542C16.5118 17.7389 16.6625 17.4698 16.7271 17.1469C16.7917 16.7809 16.9372 16.4421 17.1637 16.1303C17.3893 15.8178 17.7604 15.4139 18.2771 14.9188C18.9445 14.2945 19.4129 13.724 19.6824 13.2073C19.9511 12.6906 20.0854 12.1201 20.0854 11.4958C20.0854 10.3979 19.6712 9.49893 18.8428 8.79884C18.0136 8.09962 16.9424 7.75001 15.6292 7.75001C14.725 7.75001 13.9233 7.92223 13.2241 8.26668C12.524 8.61112 11.9802 9.13855 11.5927 9.84897C11.442 10.1288 11.3882 10.4031 11.4313 10.6718C11.4743 10.9413 11.625 11.1622 11.8833 11.3344C12.1632 11.5066 12.4702 11.5604 12.8043 11.4958C13.1376 11.4313 13.4118 11.2483 13.6271 10.9469C13.8639 10.624 14.1494 10.3764 14.4835 10.2042C14.8167 10.032 15.1986 9.94584 15.6292 9.94584ZM15.5 28.4167C13.7347 28.4167 12.0663 28.0774 10.4948 27.3988C8.92327 26.7212 7.55109 25.8011 6.37826 24.6386C5.20457 23.4761 4.27887 22.109 3.60118 20.5375C2.92262 18.966 2.58334 17.2868 2.58334 15.5C2.58334 13.7132 2.92262 12.034 3.60118 10.4625C4.27887 8.89098 5.20457 7.52397 6.37826 6.36147C7.55109 5.19897 8.92327 4.27844 10.4948 3.59989C12.0663 2.92219 13.7347 2.58334 15.5 2.58334C17.3083 2.58334 18.9983 2.92219 20.5698 3.59989C22.1413 4.27844 23.5083 5.19897 24.6708 6.36147C25.8333 7.52397 26.7483 8.89098 27.4156 10.4625C28.083 12.034 28.4167 13.7132 28.4167 15.5C28.4167 17.2868 28.083 18.966 27.4156 20.5375C26.7483 22.109 25.8333 23.4761 24.6708 24.6386C23.5083 25.8011 22.1413 26.7212 20.5698 27.3988C18.9983 28.0774 17.3083 28.4167 15.5 28.4167ZM15.5 25.8333C18.3847 25.8333 20.8281 24.8271 22.8302 22.8147C24.8323 20.8014 25.8333 18.3632 25.8333 15.5C25.8333 12.6368 24.8323 10.1986 22.8302 8.1853C20.8281 6.17289 18.3847 5.16668 15.5 5.16668C12.6799 5.16668 10.2524 6.17289 8.21759 8.1853C6.18365 10.1986 5.16668 12.6368 5.16668 15.5C5.16668 18.3632 6.18365 20.8014 8.21759 22.8147C10.2524 24.8271 12.6799 25.8333 15.5 25.8333Z"/>
</svg>
